# xmcd
#
# Track frame offsets:
#	150
#	15360
#	31205
#	45017
#	60345
#	76725
#	94787
#	107522
#	123082
#	139720
#	153452
#	171605
#	186395
#	203820
#
# Disc length: 2942 seconds
#
# Revision: 3
# Processed by: cddbd v1.5.2PL0 Copyright (c) Steve Scherf et al.
# Submitted via: audiograbber 1.83.01
#
DISCID=a30b7c0e
DTITLE=Various Artist - Hot Hits Country Vol. 10
DYEAR=1993
DGENRE=Country
TTITLE0=Mark Chesnutt - I Just Wanted You To Know
TTITLE1=Sammy Kershaw - Queen Of My Double Wide Trailer
TTITLE2=Collin Raye - That's My Story
TTITLE3=Blackhawk - Goodbye Says It All
TTITLE4=Joe Diffie - John Deere Green
TTITLE5=Aaron Tippin - The Call Of The Wild
TTITLE6=Toby Keith - A Little Less Talk And A Lot More Action
TTITLE7=John Berry - Kiss Me In The Car
TTITLE8=Brooks and Dunn - Rock My World (Little Country Girl)
TTITLE9=McBride and The Ride - No More Cryin'
TTITLE10=Steve Wariner - Drivin And Cryin
TTITLE11=Reba McEntire - They Asked About You
TTITLE12=George Strait - I'd Like To Have That One Back
TTITLE13=Vince Gill - Tryin' To Get Over You
EXTD=
EXTT0=
EXTT1=
EXTT2=
EXTT3=
EXTT4=
EXTT5=
EXTT6=
EXTT7=
EXTT8=
EXTT9=
EXTT10=
EXTT11=
EXTT12=
EXTT13=
PLAYORDER=
